<svg width="47" height="43" viewBox="0 0 47 43" fill="none" xmlns="http://www.w3.org/2000/svg">
<g clip-path="url(#clip0_2688_17904)">
<path d="M33.75 6.25H6.25C5.58696 6.25 4.95107 6.51339 4.48223 6.98223C4.01339 7.45107 3.75 8.08696 3.75 8.75V31.25C3.75 31.913 4.01339 32.5489 4.48223 33.0178C4.95107 33.4866 5.58696 33.75 6.25 33.75H33.75C34.413 33.75 35.0489 33.4866 35.5178 33.0178C35.9866 32.5489 36.25 31.913 36.25 31.25V8.75C36.25 8.08696 35.9866 7.45107 35.5178 6.98223C35.0489 6.51339 34.413 6.25 33.75 6.25ZM19.5469 27.4531C19.3878 27.4955 19.222 27.5061 19.0589 27.4843C18.8957 27.4625 18.7385 27.4086 18.5963 27.3259C18.454 27.2431 18.3295 27.1331 18.2298 27.0021C18.1302 26.8711 18.0574 26.7217 18.0156 26.5625C17.8038 25.7627 17.3334 25.0555 16.6778 24.5509C16.0221 24.0463 15.218 23.7726 14.3906 23.7726C13.5633 23.7726 12.7591 24.0463 12.1035 24.5509C11.4478 25.0555 10.9775 25.7627 10.7656 26.5625C10.6936 26.8309 10.5352 27.0681 10.3149 27.2375C10.0947 27.407 9.82477 27.4992 9.54688 27.5L9.23438 27.4531C9.07578 27.4131 8.92671 27.342 8.79584 27.2439C8.66497 27.1458 8.5549 27.0226 8.47203 26.8816C8.38916 26.7406 8.33515 26.5845 8.31313 26.4224C8.29111 26.2604 8.30152 26.0955 8.34375 25.9375C8.72426 24.4599 9.62957 23.1714 10.8906 22.3125C10.1814 21.6173 9.69521 20.7266 9.49415 19.754C9.2931 18.7814 9.38624 17.7709 9.76172 16.8515C10.1372 15.932 10.778 15.1452 11.6024 14.5914C12.4268 14.0376 13.3975 13.7418 14.3906 13.7418C15.3838 13.7418 16.3545 14.0376 17.1789 14.5914C18.0033 15.1452 18.6441 15.932 19.0195 16.8515C19.395 17.7709 19.4882 18.7814 19.2871 19.754C19.086 20.7266 18.5999 21.6173 17.8906 22.3125C19.1517 23.1714 20.057 24.4599 20.4375 25.9375C20.4797 26.0955 20.4901 26.2604 20.4681 26.4224C20.4461 26.5845 20.3921 26.7406 20.3092 26.8816C20.2263 27.0226 20.1163 27.1458 19.9854 27.2439C19.8545 27.342 19.7055 27.4131 19.5469 27.4531ZM30 23.75H23.75C23.4185 23.75 23.1005 23.6183 22.8661 23.3839C22.6317 23.1495 22.5 22.8315 22.5 22.5C22.5 22.1685 22.6317 21.8505 22.8661 21.6161C23.1005 21.3817 23.4185 21.25 23.75 21.25H30C30.3315 21.25 30.6495 21.3817 30.8839 21.6161C31.1183 21.8505 31.25 22.1685 31.25 22.5C31.25 22.8315 31.1183 23.1495 30.8839 23.3839C30.6495 23.6183 30.3315 23.75 30 23.75ZM30 18.75H23.75C23.4185 18.75 23.1005 18.6183 22.8661 18.3839C22.6317 18.1495 22.5 17.8315 22.5 17.5C22.5 17.1685 22.6317 16.8505 22.8661 16.6161C23.1005 16.3817 23.4185 16.25 23.75 16.25H30C30.3315 16.25 30.6495 16.3817 30.8839 16.6161C31.1183 16.8505 31.25 17.1685 31.25 17.5C31.25 17.8315 31.1183 18.1495 30.8839 18.3839C30.6495 18.6183 30.3315 18.75 30 18.75Z" fill="#2F8ED6"/>
<path d="M14.3903 21.25C15.771 21.25 16.8903 20.1307 16.8903 18.75C16.8903 17.3693 15.771 16.25 14.3903 16.25C13.0095 16.25 11.8903 17.3693 11.8903 18.75C11.8903 20.1307 13.0095 21.25 14.3903 21.25Z" fill="#2F8ED6"/>
</g>
<path d="M45.6484 32.0312C45.3516 31.7266 45.0469 31.4062 44.9297 31.1328C44.8125 30.8594 44.8203 30.4531 44.8125 30.0391C44.8047 29.2813 44.7891 28.4141 44.1875 27.8125C43.5859 27.2109 42.7188 27.1953 41.9609 27.1875C41.5469 27.1797 41.125 27.1719 40.8672 27.0703C40.6094 26.9688 40.2734 26.6484 39.9688 26.3516C39.4297 25.8359 38.8125 25.25 38 25.25C37.1875 25.25 36.5703 25.8359 36.0312 26.3516C35.7266 26.6484 35.4062 26.9531 35.1328 27.0703C34.8594 27.1875 34.4531 27.1797 34.0391 27.1875C33.2813 27.1953 32.4141 27.2109 31.8125 27.8125C31.2109 28.4141 31.1953 29.2813 31.1875 30.0391C31.1797 30.4531 31.1719 30.875 31.0703 31.1328C30.9688 31.3906 30.6484 31.7266 30.3516 32.0312C29.8359 32.5703 29.25 33.1875 29.25 34C29.25 34.8125 29.8359 35.4297 30.3516 35.9688C30.6484 36.2734 30.9531 36.5938 31.0703 36.8672C31.1875 37.1406 31.1797 37.5469 31.1875 37.9609C31.1953 38.7188 31.2109 39.5859 31.8125 40.1875C32.4141 40.7891 33.2813 40.8047 34.0391 40.8125C34.4531 40.8203 34.875 40.8281 35.1328 40.9297C35.3906 41.0312 35.7266 41.3516 36.0312 41.6484C36.5703 42.1641 37.1875 42.75 38 42.75C38.8125 42.75 39.4297 42.1641 39.9688 41.6484C40.2734 41.3516 40.5938 41.0469 40.8672 40.9297C41.1406 40.8125 41.5469 40.8203 41.9609 40.8125C42.7188 40.8047 43.5859 40.7891 44.1875 40.1875C44.7891 39.5859 44.8047 38.7188 44.8125 37.9609C44.8203 37.5469 44.8281 37.125 44.9297 36.8672C45.0312 36.6094 45.3516 36.2734 45.6484 35.9688C46.1641 35.4297 46.75 34.8125 46.75 34C46.75 33.1875 46.1641 32.5703 45.6484 32.0312ZM41.8672 32.5781L37.2891 36.9531C37.1707 37.0645 37.0141 37.126 36.8516 37.125C36.6915 37.1256 36.5374 37.064 36.4219 36.9531L34.1328 34.7656C34.0693 34.7102 34.0177 34.6426 33.981 34.5667C33.9443 34.4909 33.9234 34.4084 33.9194 34.3242C33.9154 34.24 33.9285 34.1559 33.9578 34.077C33.9872 33.998 34.0322 33.9258 34.0902 33.8646C34.1482 33.8035 34.2179 33.7547 34.2952 33.7212C34.3725 33.6877 34.4558 33.6702 34.5401 33.6697C34.6243 33.6692 34.7078 33.6857 34.7855 33.7183C34.8632 33.7509 34.9335 33.7989 34.9922 33.8594L36.8516 35.6328L41.0078 31.6719C41.1293 31.5659 41.2871 31.5109 41.4482 31.5185C41.6093 31.5261 41.7612 31.5957 41.8722 31.7128C41.9832 31.8298 42.0446 31.9852 42.0437 32.1465C42.0428 32.3077 41.9795 32.4624 41.8672 32.5781Z" fill="#5BC065"/>
<defs>
<clipPath id="clip0_2688_17904">
<rect width="40" height="40" fill="white"/>
</clipPath>
</defs>
</svg>
