<svg width="42" height="42" viewBox="0 0 42 42" fill="none" xmlns="http://www.w3.org/2000/svg">
<path d="M21 3.9375C17.6254 3.9375 14.3265 4.9382 11.5206 6.81305C8.71468 8.6879 6.52773 11.3527 5.23631 14.4705C3.94489 17.5882 3.607 21.0189 4.26536 24.3287C4.92372 27.6385 6.54876 30.6788 8.935 33.065C11.3212 35.4512 14.3615 37.0763 17.6713 37.7346C20.9811 38.393 24.4118 38.0551 27.5295 36.7637C30.6473 35.4723 33.3121 33.2853 35.187 30.4794C37.0618 27.6735 38.0625 24.3746 38.0625 21C38.0538 16.4774 36.2534 12.1425 33.0554 8.94457C29.8575 5.74661 25.5226 3.94617 21 3.9375ZM27.1852 25.3148C27.4316 25.5637 27.5699 25.8998 27.5699 26.25C27.5699 26.6002 27.4316 26.9363 27.1852 27.1852C26.9343 27.4277 26.599 27.5633 26.25 27.5633C25.901 27.5633 25.5657 27.4277 25.3149 27.1852L21 22.8539L16.6852 27.1852C16.4343 27.4277 16.099 27.5633 15.75 27.5633C15.401 27.5633 15.0657 27.4277 14.8149 27.1852C14.5684 26.9363 14.4301 26.6002 14.4301 26.25C14.4301 25.8998 14.5684 25.5637 14.8149 25.3148L19.1461 21L14.8149 16.6852C14.6056 16.4301 14.4986 16.1064 14.5148 15.7769C14.531 15.4474 14.6691 15.1357 14.9024 14.9024C15.1357 14.6691 15.4474 14.531 15.7769 14.5148C16.1064 14.4986 16.4302 14.6055 16.6852 14.8148L21 19.1461L25.3149 14.8148C25.5699 14.6055 25.8936 14.4986 26.2231 14.5148C26.5526 14.531 26.8643 14.6691 27.0976 14.9024C27.3309 15.1357 27.4691 15.4474 27.4852 15.7769C27.5014 16.1064 27.3945 16.4301 27.1852 16.6852L22.8539 21L27.1852 25.3148Z" fill="white"/>
</svg>
