<svg width="17" height="17" viewBox="0 0 17 17" fill="none" xmlns="http://www.w3.org/2000/svg">
<g clip-path="url(#clip0_29181_9731)">
<path d="M6.72772 0.176758H1.62355C0.966836 0.176758 0.432617 0.710976 0.432617 1.36769V4.43019C0.432617 5.08703 0.966836 5.62125 1.62355 5.62125H6.72772C7.38456 5.62125 7.91878 5.08703 7.91878 4.43019V1.36769C7.91878 0.710976 7.38456 0.176758 6.72772 0.176758Z" fill="#BDBDBD"/>
<path d="M6.72675 6.98242H1.62257C0.965859 6.98242 0.431641 7.51664 0.431641 8.17348V15.3193C0.431641 15.976 0.965859 16.5103 1.62257 16.5103H6.72675C7.38358 16.5103 7.9178 15.976 7.9178 15.3193V8.17348C7.9178 7.51664 7.38358 6.98242 6.72675 6.98242Z" fill="#BDBDBD"/>
<path d="M15.5735 11.0654H10.4694C9.81254 11.0654 9.27832 11.5996 9.27832 12.2565V15.319C9.27832 15.9757 9.81254 16.5099 10.4694 16.5099H15.5735C16.2303 16.5099 16.7645 15.9757 16.7645 15.319V12.2565C16.7645 11.5996 16.2303 11.0654 15.5735 11.0654Z" fill="#BDBDBD"/>
<path d="M15.5735 0.176758H10.4694C9.81254 0.176758 9.27832 0.710976 9.27832 1.36769V8.51353C9.27832 9.17037 9.81254 9.70459 10.4694 9.70459H15.5735C16.2303 9.70459 16.7645 9.17037 16.7645 8.51353V1.36769C16.7645 0.710976 16.2303 0.176758 15.5735 0.176758V0.176758Z" fill="#BDBDBD"/>
</g>
<defs>
<clipPath id="clip0_29181_9731">
<rect width="16.3334" height="16.3334" fill="white" transform="translate(0.432617 0.176758)"/>
</clipPath>
</defs>
</svg>
