<svg width="22" height="22" viewBox="0 0 22 22" fill="none" xmlns="http://www.w3.org/2000/svg">
<g clip-path="url(#clip0_29229_1780)">
<path d="M20.9783 14.5498C20.8026 14.7627 20.5951 14.9543 20.3662 15.1086V17.4929H20.6643C21.2923 17.4929 21.7979 16.9873 21.8032 16.3646V13.4854L20.9783 14.5498Z" fill="#BDBDBD"/>
<path d="M15.9488 9.45668H19.0197C19.1102 9.45668 19.206 9.44603 19.3018 9.42475V6.38049C19.3018 5.75248 18.7909 5.2522 18.1682 5.2522H2.07937C1.45135 5.2522 0.945752 5.7578 0.94043 6.38049V18.5841C0.945752 19.2121 1.45135 19.7231 2.07937 19.7284H18.1682C18.7962 19.7231 19.3018 19.2121 19.3018 18.5841L19.2965 15.492C19.206 15.5026 19.1102 15.5133 19.0144 15.5186H15.9488C14.2777 15.5133 12.9205 14.1561 12.9205 12.485C12.9205 10.8138 14.2777 9.45668 15.9488 9.45668Z" fill="#BDBDBD"/>
<path d="M20.6648 3.01648H4.576C3.94799 3.0218 3.44238 3.53273 3.44238 4.16074V4.18735H18.1687C19.3822 4.18735 20.3668 5.16662 20.3668 6.38006V8.60472L21.8037 6.75261V4.16074C21.7984 3.53273 21.2928 3.0218 20.6648 3.01648Z" fill="#BDBDBD"/>
<path d="M21.7992 8.49329L20.9743 9.55771C20.7348 9.8664 20.4261 10.1165 20.0748 10.2815C19.7449 10.4412 19.383 10.521 19.0157 10.521H15.9502C14.8645 10.5263 13.9863 11.4045 13.9863 12.4902C13.9863 13.5759 14.8645 14.4541 15.9502 14.4594H19.0211C19.4575 14.4541 19.8726 14.2518 20.1387 13.9059L21.8045 11.7451L21.7992 8.49329ZM17.1423 13.0224H15.865C15.5723 13.0224 15.3328 12.7829 15.3328 12.4902C15.3328 12.1975 15.5723 11.958 15.865 11.958H17.1423C17.4351 11.958 17.6746 12.1975 17.6746 12.4902C17.6746 12.7829 17.4351 13.0224 17.1423 13.0224Z" fill="#BDBDBD"/>
</g>
<defs>
<clipPath id="clip0_29229_1780">
<rect width="20.8627" height="20.8627" fill="white" transform="translate(0.94043 0.94104)"/>
</clipPath>
</defs>
</svg>
