<svg width="40" height="40" viewBox="0 0 40 40" fill="none" xmlns="http://www.w3.org/2000/svg">
<g clip-path="url(#clip0_2688_19602)">
<path d="M35.6876 13.9532L20.6876 3.95325C20.4821 3.82257 20.2436 3.75317 20.0001 3.75317C19.7565 3.75317 19.5181 3.82257 19.3126 3.95325L4.31255 13.9532C4.13827 14.0663 3.99535 14.2215 3.89702 14.4045C3.7987 14.5875 3.74814 14.7924 3.75005 15.0001V31.2501C3.75005 31.9132 4.01344 32.549 4.48229 33.0179C4.95113 33.4867 5.58701 33.7501 6.25005 33.7501H33.7501C34.4131 33.7501 35.049 33.4867 35.5178 33.0179C35.9867 32.549 36.2501 31.9132 36.2501 31.2501V15.0001C36.252 14.7924 36.2014 14.5875 36.1031 14.4045C36.0048 14.2215 35.8618 14.0663 35.6876 13.9532ZM15.1094 23.7501L6.25005 30.0001V17.422L15.1094 23.7501ZM17.6719 25.0001H22.3282L31.1719 31.2501H8.82818L17.6719 25.0001ZM24.8907 23.7501L33.7501 17.422V30.0001L24.8907 23.7501Z" fill="#2F8ED6"/>
</g>
<defs>
<clipPath id="clip0_2688_19602">
<rect width="40" height="40" fill="white"/>
</clipPath>
</defs>
</svg>
