<svg width="21" height="22" viewBox="0 0 21 22" fill="none" xmlns="http://www.w3.org/2000/svg">
<path d="M3.30328 0.164833C3.27507 0.263587 3.26096 0.983078 3.27507 1.759L3.31739 3.15566L7.66255 3.19798L12.0077 3.2262L11.9654 1.64614L11.9231 0.0519722L7.64844 0.00964904C4.19206 -0.0185661 3.37382 0.00964904 3.30328 0.164833Z" fill="#BDBDBD"/>
<path d="M17.9742 1.74534C17.2265 2.12625 17.0713 2.5918 17.0713 4.34115V5.9071H18.7078H20.3443L20.2878 4.21418C20.2455 2.54948 20.2455 2.52127 19.8223 2.09804C19.2862 1.57605 18.5808 1.43498 17.9742 1.74534Z" fill="#BDBDBD"/>
<path d="M0.212592 1.85778C0.0291919 1.95654 0.000976562 3.31087 0.000976562 11.8037C0.000976562 19.2807 0.0432996 21.6932 0.170269 21.8201C0.410099 22.06 14.8281 22.06 15.068 21.8201C15.1949 21.6932 15.2373 19.2666 15.2373 11.8037C15.2373 3.22623 15.209 1.94243 15.0256 1.87189C14.9128 1.82957 14.4049 1.77314 13.9111 1.77314L13.0082 1.74492L12.9518 2.56317C12.8954 3.21212 12.8107 3.45195 12.5145 3.76232L12.1336 4.14322H7.61911C3.11877 4.14322 3.11877 4.14322 2.79429 3.81875C2.55446 3.57892 2.45571 3.28266 2.39928 2.63371L2.32874 1.77314L1.36942 1.75903C0.847436 1.74492 0.325453 1.78724 0.212592 1.85778ZM12.7684 6.75314V7.10583L7.74608 7.14816C3.41503 7.17637 2.69554 7.14816 2.54036 6.96476C2.4416 6.8519 2.39928 6.65439 2.45571 6.54153C2.52625 6.35813 3.1752 6.32991 7.64733 6.35813L12.7684 6.40045V6.75314ZM12.7825 10.2095C12.839 10.3224 12.7966 10.5199 12.6979 10.6328C12.4298 10.9431 2.8084 10.9431 2.54036 10.6328C2.4416 10.5199 2.39928 10.3224 2.45571 10.2095C2.52625 10.0261 3.20342 9.99791 7.61911 9.99791C12.0348 9.99791 12.712 10.0261 12.7825 10.2095ZM12.712 13.7505C12.839 13.9057 12.8531 14.0327 12.7402 14.202C12.6132 14.4136 12.1054 14.4418 7.61911 14.4418C2.96359 14.4418 2.625 14.4277 2.48393 14.1879C2.35696 13.9763 2.38517 13.8916 2.59679 13.7223C2.82251 13.5671 3.7254 13.5248 7.70376 13.5248C11.922 13.5248 12.5427 13.553 12.712 13.7505ZM12.7543 17.5173C12.8813 17.7289 12.8531 17.8136 12.6273 17.9828C12.3875 18.1521 11.5975 18.1804 7.68965 18.1662C5.13617 18.1662 2.89305 18.0957 2.72376 18.0252C2.54036 17.9687 2.39928 17.8277 2.39928 17.7148C2.39928 17.2069 2.63911 17.1928 7.67555 17.221C12.2464 17.2634 12.6132 17.2775 12.7543 17.5173Z" fill="#BDBDBD"/>
<path d="M17.0713 12.2552V17.7572H18.6937H20.3161L20.2878 12.2834L20.2455 6.82376L18.6655 6.78144L17.0713 6.73912V12.2552Z" fill="#BDBDBD"/>
<path d="M17.7627 20.2543C18.2987 21.778 18.6091 22.2012 18.9195 21.8908C19.0041 21.8062 19.3145 21.0585 19.6108 20.2402L20.1327 18.7448H18.6797H17.2266L17.7627 20.2543Z" fill="#BDBDBD"/>
</svg>
