<svg width="20" height="23" viewBox="0 0 20 23" fill="none" xmlns="http://www.w3.org/2000/svg">
<path d="M15.6092 0.764701L19.0881 4.23834H17.16C16.3046 4.23572 15.6116 3.54293 15.6092 2.68759V0.764701ZM12.239 22.0358H1.7197C0.864159 22.0332 0.171368 21.3404 0.168945 20.4851V5.25138C0.171368 4.39605 0.864159 3.70325 1.7197 3.70063H8.55855V6.35246C8.55896 7.77963 9.71576 8.93664 11.1431 8.93704H13.7948V20.4851C13.7899 21.3414 13.0953 22.0336 12.239 22.0358ZM13.0711 7.90321H11.1431C10.2876 7.90078 9.59481 7.20799 9.59239 6.35246V4.42956L13.0711 7.90321ZM18.2611 18.3708H14.8236V8.40983C14.8225 8.27272 14.7688 8.14147 14.6735 8.04274L9.45266 2.82712L9.44761 2.82187C9.35008 2.72131 9.2154 2.66538 9.07547 2.6668H6.19103V1.58652C6.19346 0.731182 6.88625 0.0381897 7.74178 0.0357666H14.5806V2.68759C14.581 4.11477 15.7379 5.27157 17.1652 5.27218H19.8118V16.82C19.8092 17.6756 19.1164 18.3684 18.2611 18.3708Z" fill="#BDBDBD"/>
</svg>
