<svg width="22" height="22" viewBox="0 0 22 22" fill="none" xmlns="http://www.w3.org/2000/svg">
<path d="M16.1553 5.15637C15.4433 5.15637 14.8662 4.57926 14.8662 3.86731V1.28918C14.8662 0.577235 15.4433 0.00012207 16.1553 0.00012207C16.8672 0.00012207 17.4443 0.577235 17.4443 1.28918V3.86731C17.4443 4.57926 16.8672 5.15637 16.1553 5.15637Z" fill="#BDBDBD"/>
<path d="M19.6357 2.57825H18.7334V3.86731C18.7334 5.28889 17.5769 6.44543 16.1553 6.44543C14.7337 6.44543 13.5771 5.28889 13.5771 3.86731V2.57825H8.4209V3.86731C8.4209 5.28889 7.26435 6.44543 5.84277 6.44543C4.4212 6.44543 3.26465 5.28889 3.26465 3.86731V2.57825H2.3623C1.05919 2.57825 -0.000976562 3.63842 -0.000976562 4.94153V7.82043H21.999V4.94153C21.999 3.63842 20.9389 2.57825 19.6357 2.57825Z" fill="#BDBDBD"/>
<path d="M5.84375 5.15637C5.1318 5.15637 4.55469 4.57926 4.55469 3.86731V1.28918C4.55469 0.577235 5.1318 0.00012207 5.84375 0.00012207C6.5557 0.00012207 7.13281 0.577235 7.13281 1.28918V3.86731C7.13281 4.57926 6.5557 5.15637 5.84375 5.15637Z" fill="#BDBDBD"/>
<path d="M-0.000976562 9.1095V19.6368C-0.000976562 20.94 1.05919 22.0001 2.3623 22.0001H19.6357C20.9389 22.0001 21.999 20.94 21.999 19.6368V9.1095H-0.000976562ZM11.6764 17.4884C11.6764 18.91 10.5198 20.0665 9.09826 20.0665C7.81916 20.0665 6.72153 19.1124 6.54493 17.8472C6.52847 17.7292 6.52013 17.6085 6.52013 17.4884C6.52013 17.1324 6.80871 16.8439 7.16466 16.8439C7.52062 16.8439 7.8092 17.1324 7.8092 17.4884C7.8092 17.5491 7.81341 17.6098 7.82166 17.669C7.90978 18.3009 8.45862 18.7775 9.09826 18.7775C9.80905 18.7775 10.3873 18.1992 10.3873 17.4884C10.3873 16.7776 9.80905 16.1993 9.09826 16.1993C8.7423 16.1993 8.45373 15.9108 8.45373 15.5548C8.45373 15.1989 8.7423 14.9103 9.09826 14.9103C9.80905 14.9103 10.3873 14.332 10.3873 13.6212C10.3873 12.9104 9.80905 12.3322 9.09826 12.3322C8.48355 12.3322 7.95159 12.7689 7.83339 13.3707C7.76472 13.72 7.42566 13.9474 7.07675 13.8789C6.72746 13.8103 6.49989 13.4715 6.56851 13.1222C6.8051 11.9175 7.86901 11.0431 9.09826 11.0431C10.5198 11.0431 11.6764 12.1996 11.6764 13.6212C11.6764 14.3907 11.3371 15.082 10.8008 15.5548C11.3371 16.0276 11.6764 16.7189 11.6764 17.4884ZM15.4779 19.422C15.4779 19.7779 15.1893 20.0665 14.8334 20.0665C14.4774 20.0665 14.1889 19.7779 14.1889 19.422V12.3322H13.1802C12.8243 12.3322 12.5357 12.0436 12.5357 11.6876C12.5357 11.3317 12.8243 11.0431 13.1802 11.0431H14.8334C15.1893 11.0431 15.4779 11.3317 15.4779 11.6876V19.422Z" fill="#BDBDBD"/>
</svg>
