<svg width="24" height="24" viewBox="0 0 24 24" fill="none" xmlns="http://www.w3.org/2000/svg">
<path d="M1.13132 2.0927C0.964657 2.25936 0.964657 3.20381 1.1128 3.7964C1.2054 4.11122 1.31651 4.18529 1.59429 4.0927C1.83503 4.01862 2.1128 4.12973 2.4091 4.40751C2.83503 4.81492 2.85355 4.81492 3.22392 4.48159C3.68688 4.05566 3.68688 3.7964 3.22392 3.37048C2.96466 3.14825 2.89058 2.90751 2.96466 2.61122C3.05725 2.25936 3.00169 2.16677 2.7054 2.16677C2.50169 2.16677 2.1128 2.11122 1.81651 2.05566C1.52021 2.00011 1.22392 2.01862 1.13132 2.0927Z" fill="#BDBDBD"/>
<path d="M7.1306 4.31491C4.74172 5.57417 2.70468 6.68528 2.61209 6.77788C2.53801 6.85195 3.09357 7.25936 3.88986 7.68528L5.33431 8.42603L10.1491 6.01862L14.9639 3.61121L13.4825 2.7964C12.6862 2.35195 11.8899 2.0001 11.7417 2.0001C11.5936 2.0001 9.50097 3.03714 7.1306 4.31491Z" fill="#BDBDBD"/>
<path d="M21.0018 2.1484C20.4833 2.24099 20.3537 2.33358 20.3907 2.66692C20.4092 2.87062 20.3166 3.16692 20.1685 3.27803C19.7796 3.59284 19.8166 4.09284 20.2611 4.48173C20.6129 4.79655 20.65 4.79655 21.0203 4.46321C21.2426 4.27803 21.5944 4.11136 21.7981 4.11136C22.1129 4.11136 22.224 3.94469 22.3537 3.31506C22.6129 2.00025 22.4833 1.88914 21.0018 2.1484Z" fill="#BDBDBD"/>
<path d="M13.0947 7.42614C10.6132 8.66688 8.5391 9.74096 8.48354 9.81503C8.42799 9.87059 9.13169 10.2965 10.0576 10.7595L11.7428 11.6113L16.4095 9.278C20.7613 7.11133 21.0576 6.92614 20.7243 6.66688C20.2613 6.33355 17.9095 5.12985 17.7243 5.12985C17.6317 5.14837 15.5576 6.16688 13.0947 7.42614Z" fill="#BDBDBD"/>
<path d="M2.09457 8.50006C2.03902 12.1112 2.13161 18.3704 2.26124 18.5001C2.46494 18.7038 11.1872 23.2778 11.3909 23.2778C11.4835 23.2778 11.5575 21.0371 11.5575 17.7223V12.1667L9.89087 11.3334C8.98346 10.8704 8.18716 10.5001 8.13161 10.5001C8.07605 10.5001 8.03902 11.5001 8.03902 12.7223C8.03902 15.3149 7.87235 15.5741 6.87235 14.6112C6.42791 14.1852 6.13161 14.0371 5.7242 14.0741L5.16865 14.1112L5.11309 11.463L5.05754 8.83339L3.59457 8.09265L2.11309 7.35191L2.09457 8.50006Z" fill="#BDBDBD"/>
<path d="M16.5944 9.77783L11.9277 12.1852V17.7408C11.9277 21.0371 12.0018 23.2778 12.0944 23.2778C12.2981 23.2778 21.0203 18.7038 21.2611 18.463C21.3907 18.3334 21.4833 7.57413 21.3351 7.4445C21.2981 7.40746 19.1685 8.46302 16.5944 9.77783Z" fill="#BDBDBD"/>
<path d="M2.22358 21.2224C2.03839 21.4261 1.76061 21.5372 1.61246 21.4816C1.46432 21.4261 1.26061 21.4816 1.16802 21.6298C1.00135 21.9076 0.92728 23.3335 1.09395 23.4816C1.13098 23.5372 1.57543 23.5372 2.05691 23.4631C2.81617 23.389 2.9458 23.315 2.9458 22.9631C2.9458 22.7409 3.09395 22.4076 3.27913 22.2039C3.68654 21.7594 3.66802 21.5557 3.26061 21.1853C2.81617 20.7779 2.61246 20.7965 2.22358 21.2224Z" fill="#BDBDBD"/>
<path d="M20.2057 21.2038C19.8168 21.6298 19.8168 21.7779 20.2057 22.2038C20.3909 22.4075 20.5391 22.7409 20.5391 22.9631C20.5391 23.2964 20.6687 23.389 21.2983 23.4631C21.7242 23.5187 22.1502 23.5372 22.2798 23.5001C22.502 23.4261 22.5391 22.8705 22.3724 22.0001C22.2613 21.5001 22.1872 21.4075 21.8354 21.5001C21.5576 21.5742 21.3168 21.4816 21.0946 21.2409C20.6872 20.7779 20.5761 20.7779 20.2057 21.2038Z" fill="#BDBDBD"/>
</svg>
