<svg width="22" height="22" viewBox="0 0 22 22" fill="none" xmlns="http://www.w3.org/2000/svg">
<g clip-path="url(#clip0_29229_1717)">
<path d="M11.0011 0C7.85821 0 5.28906 2.56915 5.28906 5.71203C5.28906 8.8549 7.85821 11.4241 11.0011 11.4241C14.144 11.4241 16.7131 8.8549 16.7131 5.71203C16.7131 2.56915 14.144 0 11.0011 0Z" fill="#BDBDBD"/>
<path d="M20.8029 15.9886C20.6532 15.6145 20.4537 15.2653 20.2292 14.941C19.0818 13.2449 17.3109 12.1224 15.3154 11.848C15.066 11.8231 14.7916 11.873 14.5921 12.0226C13.5444 12.7959 12.2973 13.195 11.0002 13.195C9.70314 13.195 8.45599 12.7959 7.40837 12.0226C7.2088 11.873 6.93442 11.7981 6.68501 11.848C4.68954 12.1224 2.89364 13.2449 1.7712 14.941C1.54671 15.2653 1.34715 15.6395 1.19752 15.9886C1.12271 16.1383 1.14763 16.3129 1.22244 16.4626C1.42201 16.8118 1.67142 17.161 1.89591 17.4603C2.2451 17.9343 2.61926 18.3583 3.04332 18.7574C3.39251 19.1066 3.79159 19.4308 4.19072 19.7551C6.16122 21.2268 8.53085 22 10.9753 22C13.4197 22 15.7894 21.2267 17.7599 19.7551C18.159 19.4558 18.558 19.1066 18.9073 18.7574C19.3064 18.3583 19.7055 17.9342 20.0547 17.4603C20.3041 17.1361 20.5286 16.8118 20.7282 16.4626C20.8528 16.3129 20.8777 16.1383 20.8029 15.9886Z" fill="#BDBDBD"/>
</g>
<defs>
<clipPath id="clip0_29229_1717">
<rect width="22" height="22" fill="white"/>
</clipPath>
</defs>
</svg>
