<svg width="22" height="23" viewBox="0 0 22 23" fill="none" xmlns="http://www.w3.org/2000/svg">
<path d="M10.3388 1.84582C10.2423 2.27704 9.87502 2.58918 9.43916 2.66194C9.11336 2.71633 8.7917 2.7892 8.47491 2.8804C8.05357 3.00171 7.59122 2.88175 7.31712 2.53952L6.78081 1.86989C6.43273 1.43528 5.79823 1.36513 5.36362 1.71321L2.8165 3.75312C2.38189 4.10118 2.31171 4.73566 2.65976 5.17028L3.18272 5.82334C3.45839 6.16759 3.4729 6.64828 3.25848 7.03368C3.09246 7.3321 2.94461 7.63947 2.81533 7.95505C2.64817 8.36308 2.26395 8.65212 1.82301 8.65212L1.00725 8.65212C0.45042 8.65212 -0.00097715 9.10352 -0.000977125 9.66035L-0.000976983 12.9238C-0.000976958 13.4806 0.450421 13.932 1.00725 13.932L1.84496 13.932C2.28339 13.932 2.66602 14.2179 2.83483 14.6225C2.9818 14.9748 3.15206 15.3167 3.34513 15.6473C3.56875 16.0303 3.56274 16.5142 3.29063 16.8643L2.78202 17.5187C2.44034 17.9584 2.51975 18.5918 2.9594 18.9335L5.5361 20.9361C5.97579 21.2778 6.60926 21.1984 6.95094 20.7586L7.49658 20.0564C7.76421 19.712 8.22161 19.5846 8.64312 19.6968C8.95798 19.7807 9.27723 19.8465 9.60023 19.8943C10.0389 19.9592 10.4129 20.2664 10.5161 20.6976L10.7215 21.556C10.8511 22.0975 11.3951 22.4315 11.9366 22.3019L15.1103 21.5426C15.6518 21.4131 15.9858 20.869 15.8563 20.3275L15.7254 19.7806C15.6821 19.5995 15.5894 19.4339 15.4578 19.3022C14.7777 18.6222 14.1341 17.9785 13.3691 17.2135C13.091 16.9354 12.6775 16.8521 12.296 16.9476C8.67998 17.8522 5.0378 15.1207 5.0378 11.2644C5.0378 8.03262 7.65796 5.4125 10.8897 5.4125C14.6699 5.4125 17.3978 8.92547 16.6108 12.5054C16.5289 12.8779 16.6154 13.2757 16.8851 13.5454C17.4828 14.1431 18.5413 15.2016 19.3448 16.0051C19.8384 16.4987 20.6715 16.3528 20.9691 15.7214L21.5691 14.4485C21.8065 13.9448 21.5907 13.344 21.087 13.1066L20.2059 12.6913C19.8102 12.5048 19.5859 12.0845 19.6054 11.6475C19.6191 11.3398 19.6165 11.0328 19.5979 10.7273C19.5712 10.2899 19.7893 9.86521 20.183 9.6726L21.041 9.25277C21.5412 9.00805 21.7483 8.4042 21.5035 7.90404L20.0692 4.97261C19.8245 4.47244 19.2207 4.26536 18.7205 4.51008L17.8721 4.9252C17.4768 5.1186 17.0056 5.02865 16.6765 4.73652C16.4412 4.52765 16.195 4.33197 15.9384 4.14995C15.5817 3.89681 15.3874 3.46178 15.483 3.03488L15.684 2.13684C15.8057 1.59344 15.4638 1.05431 14.9204 0.932689L11.7359 0.219926C11.1925 0.0983043 10.6534 0.440218 10.5318 0.983606L10.3388 1.84582Z" fill="#BDBDBD"/>
<path d="M9.3705 7.51418C8.92979 7.6894 8.81233 8.25847 9.14766 8.59386L10.167 9.61339C10.4435 9.88993 10.4435 10.3383 10.1669 10.6148C9.89037 10.8913 9.44198 10.8913 9.16545 10.6147L8.14634 9.59541C7.81092 9.25993 7.24169 9.37724 7.06625 9.818C5.71583 13.2131 9.07961 16.3696 12.2425 15.2468C12.6715 15.0945 13.1712 15.1521 13.4932 15.474C17.3605 19.3413 14.2131 16.1936 18.8554 20.8358C19.2491 21.2295 19.894 21.236 20.2877 20.8423L20.5871 20.5429C20.9808 20.1492 20.977 19.507 20.5833 19.1133C18.409 16.9389 20.5304 19.0599 15.118 13.6475C14.8143 13.3438 14.7455 12.8802 14.8664 12.4681C15.7931 9.31117 12.6288 6.21724 9.3705 7.51418Z" fill="#BDBDBD"/>
</svg>
