<svg width="24" height="22" viewBox="0 0 24 22" fill="none" xmlns="http://www.w3.org/2000/svg">
<path d="M11.2099 1.23316C11.5228 1.05255 11.9082 1.05255 12.221 1.23316L14.9909 2.83234C15.3037 3.01295 15.4964 3.34673 15.4964 3.70796V6.90632C15.4964 7.26755 15.3037 7.60133 14.9909 7.78194L12.221 9.38112C11.9082 9.56173 11.5228 9.56173 11.2099 9.38112L8.44006 7.78194C8.12723 7.60133 7.93452 7.26755 7.93452 6.90632V3.70796C7.93452 3.34673 8.12723 3.01295 8.44006 2.83234L11.2099 1.23316Z" fill="#BDBDBD"/>
<path d="M4.31149 13.5604C4.62432 13.3798 5.00974 13.3798 5.32257 13.5604L8.09243 15.1596C8.40526 15.3402 8.59797 15.674 8.59797 16.0352V19.2336C8.59797 19.5948 8.40526 19.9286 8.09243 20.1092L5.32257 21.7084C5.00974 21.889 4.62432 21.889 4.31149 21.7084L1.54162 20.1092C1.2288 19.9286 1.03609 19.5948 1.03609 19.2336V16.0352C1.03609 15.674 1.2288 15.3402 1.54162 15.1596L4.31149 13.5604Z" fill="#BDBDBD"/>
<path d="M18.1806 13.5604C18.4935 13.3798 18.8789 13.3798 19.1917 13.5604L21.9616 15.1596C22.2744 15.3402 22.4671 15.674 22.4671 16.0352V19.2336C22.4671 19.5948 22.2744 19.9286 21.9616 20.1092L19.1917 21.7084C18.8789 21.889 18.4935 21.889 18.1806 21.7084L15.4108 20.1092C15.0979 19.9286 14.9052 19.5948 14.9052 19.2336V16.0352C14.9052 15.674 15.0979 15.3402 15.4108 15.1596L18.1806 13.5604Z" fill="#BDBDBD"/>
<rect x="1.99219" y="17.1528" width="13.3815" height="1.54089" rx="0.770445" transform="rotate(-60 1.99219 17.1528)" fill="#BDBDBD"/>
<rect x="14.1123" y="4.02307" width="13.3749" height="1.54089" rx="0.770445" transform="rotate(60 14.1123 4.02307)" fill="#BDBDBD"/>
<rect x="5.07422" y="17.1206" width="12.3271" height="1.54089" rx="0.770445" fill="#BDBDBD"/>
</svg>
