<svg width="18" height="24" viewBox="0 0 18 24" fill="none" xmlns="http://www.w3.org/2000/svg">
<path d="M14.7432 0.750122H3.25879C1.87378 0.750122 0.750977 1.87288 0.750977 3.25793V23.2501L3.86885 20.2993L6.52599 23.2501L9.00098 20.2993L11.476 23.2501L14.1331 20.2993L17.251 23.2501V3.25793C17.251 1.87288 16.1282 0.750122 14.7432 0.750122ZM3.9502 5.27942H12.3262C12.7407 5.27942 13.0762 5.61523 13.0762 6.02942C13.0762 6.4436 12.7407 6.77942 12.3262 6.77942H3.9502C3.53564 6.77942 3.2002 6.4436 3.2002 6.02942C3.2002 5.61523 3.53564 5.27942 3.9502 5.27942ZM3.9502 7.91614H8.13818C8.55273 7.91614 8.88818 8.25195 8.88818 8.66614C8.88818 9.08032 8.55273 9.41614 8.13818 9.41614H3.9502C3.53564 9.41614 3.2002 9.08032 3.2002 8.66614C3.2002 8.25195 3.53564 7.91614 3.9502 7.91614ZM14.0518 17.8009H3.9502C3.53564 17.8009 3.2002 17.4651 3.2002 17.0509C3.2002 16.6367 3.53564 16.3009 3.9502 16.3009H14.0518C14.4663 16.3009 14.8018 16.6367 14.8018 17.0509C14.8018 17.4651 14.4663 17.8009 14.0518 17.8009ZM14.0518 15.4454H3.9502C3.53564 15.4454 3.2002 15.1096 3.2002 14.6954C3.2002 14.2813 3.53564 13.9454 3.9502 13.9454H14.0518C14.4663 13.9454 14.8018 14.2813 14.8018 14.6954C14.8018 15.1096 14.4663 15.4454 14.0518 15.4454ZM14.0518 12.7501H3.9502C3.53564 12.7501 3.2002 12.4143 3.2002 12.0001C3.2002 11.5859 3.53564 11.2501 3.9502 11.2501H14.0518C14.4663 11.2501 14.8018 11.5859 14.8018 12.0001C14.8018 12.4143 14.4663 12.7501 14.0518 12.7501Z" fill="#BDBDBD"/>
</svg>
